<svg width="33" height="33" viewBox="0 0 33 33" fill="none" xmlns="http://www.w3.org/2000/svg">
<g clip-path="url(#clip0_962_13773)">
<path d="M8.75756 12.5891H9.03124C10.0849 12.5891 10.947 13.4512 10.947 14.5049V24.0837C10.947 25.1373 10.0849 25.9994 9.03124 25.9994H8.75756C7.70389 25.9994 6.8418 25.1373 6.8418 24.0837V14.5049C6.8418 13.4512 7.70389 12.5891 8.75756 12.5891V12.5891ZM16.4206 6.8418C17.4743 6.8418 18.3364 7.70389 18.3364 8.75756V24.0837C18.3364 25.1373 17.4743 25.9994 16.4206 25.9994C15.3669 25.9994 14.5049 25.1373 14.5049 24.0837V8.75756C14.5049 7.70389 15.3669 6.8418 16.4206 6.8418ZM24.0837 17.789C25.1373 17.789 25.9994 18.6511 25.9994 19.7048V24.0837C25.9994 25.1373 25.1373 25.9994 24.0837 25.9994C23.03 25.9994 22.1679 25.1373 22.1679 24.0837V19.7048C22.1679 18.6511 23.03 17.789 24.0837 17.789V17.789Z" fill="#991D20"/>
</g>
<defs>
<clipPath id="clip0_962_13773">
<rect width="32.8417" height="32.8417" fill="white"/>
</clipPath>
</defs>
</svg>
