<svg width="33" height="28" viewBox="0 0 33 28" fill="none" xmlns="http://www.w3.org/2000/svg">
<path d="M19.5897 1.14362C19.7569 1.24712 19.9243 1.35031 20.0918 1.45339C20.1344 1.47962 20.177 1.50584 20.2208 1.53287C20.6792 1.81447 21.1421 2.08766 21.6057 2.36001C22.4261 2.84237 23.2427 3.3313 24.0572 3.82415C24.4038 4.03382 24.7506 4.24315 25.0974 4.45237C25.1666 4.49414 25.2359 4.5359 25.3072 4.57893C25.9017 4.93718 26.4978 5.2925 27.0941 5.64747C27.6727 5.99207 28.2498 6.33926 28.8262 6.68761C29.2782 6.96047 29.7313 7.23108 30.1852 7.50063C32.5029 8.87766 32.5029 8.87766 32.7484 9.35877C32.7913 9.44078 32.7913 9.44078 32.8351 9.52444C33.0555 10.022 33.0435 10.5683 32.867 11.079C32.6885 11.4949 32.4219 11.8268 32.0226 12.0282C31.8375 12.1373 31.8375 12.1373 31.8082 12.3301C31.8081 12.4002 31.8079 12.4702 31.8078 12.5423C31.8068 12.6227 31.8058 12.7032 31.8048 12.7861C31.8055 12.8743 31.8062 12.9626 31.8069 13.0536C31.8063 13.1465 31.8057 13.2395 31.8051 13.3352C31.8035 13.5903 31.8041 13.8453 31.8052 14.1004C31.8061 14.3674 31.8053 14.6343 31.8047 14.9013C31.8041 15.3497 31.8049 15.7982 31.8066 16.2467C31.8085 16.7649 31.8079 17.2831 31.806 17.8014C31.8044 18.2463 31.8041 18.6913 31.8051 19.1363C31.8056 19.402 31.8057 19.6678 31.8045 19.9335C31.8033 20.23 31.805 20.5263 31.8069 20.8228C31.8059 20.9548 31.8059 20.9548 31.8048 21.0894C31.8033 21.5631 31.8033 21.5631 32.021 21.9652C32.0813 22.0109 32.1416 22.0566 32.2038 22.1036C32.5965 22.6673 32.6028 23.1735 32.5551 23.8465C32.4416 24.3022 32.1324 24.6473 31.7821 24.9358C31.279 25.2246 30.7401 25.2954 30.1842 25.142C29.6416 24.9338 29.3313 24.6127 29.0481 24.0981C28.8295 23.5892 28.8582 23.0759 29.0374 22.5603C29.1614 22.283 29.3264 22.0318 29.5334 21.8131C29.5798 21.8131 29.6262 21.8131 29.6739 21.8131C29.6739 19.0572 29.6739 16.3013 29.6739 13.4618L27.791 14.7725C27.7892 15.1477 27.791 15.5365 27.791 15.5365L27.8025 15.7316V15.921C27.8025 15.921 27.8182 16.2083 27.8187 16.3466C27.8222 16.7084 27.8355 17.0691 27.8513 17.4305C27.8686 17.8686 27.8746 18.307 27.8818 18.7454C27.8877 19.0867 27.8952 19.4276 27.9084 19.7687C27.9487 20.9112 27.7579 21.892 27.0387 22.8071C26.2932 23.6089 25.2074 24.0928 24.2788 24.6371C23.8263 24.9024 23.3766 25.1723 22.9277 25.4441C22.7209 25.5689 22.514 25.6936 22.3071 25.8183C22.1922 25.8875 22.0773 25.9568 21.9625 26.0261C21.7034 26.1826 21.444 26.3384 21.1842 26.4935C21.0616 26.5668 20.9393 26.6407 20.817 26.7147C18.8361 27.8937 16.6404 28.3377 14.4102 27.7254C13.583 27.4852 12.8478 27.1207 12.1056 26.6787C12.0439 26.642 11.9822 26.6052 11.9185 26.5674C11.5671 26.3576 11.2167 26.146 10.8668 25.9335C10.4174 25.6604 9.96605 25.3908 9.51432 25.1219C9.43927 25.0771 9.36423 25.0323 9.28691 24.9861C8.93204 24.7743 8.5768 24.5634 8.21999 24.3551C8.0959 24.2827 7.97195 24.2099 7.84804 24.1371C7.69344 24.0463 7.53857 23.956 7.38337 23.8664C6.26103 23.2055 5.53639 22.4564 5.1486 21.1595C5.06624 20.8353 5.0774 20.5233 5.09066 20.1914C5.09483 20.067 5.09891 19.9425 5.10291 19.8181C5.10506 19.7524 5.10721 19.6867 5.10943 19.6191C5.12177 19.1955 5.12681 18.7717 5.13245 18.348C5.13778 17.9766 5.14617 17.6057 5.16145 17.2346V14.5046L4.85143 14.2501L3.52704 13.5351L2.78429 13.1421C2.56613 13.0128 2.34787 12.8836 2.12946 12.7548C0.294079 11.6657 0.294078 11.6657 0.0494007 10.8566C-0.0669608 10.2725 0.0245215 9.77216 0.299749 9.24984C0.486046 8.97676 0.663836 8.81158 0.940992 8.64165C0.979146 8.61807 1.0173 8.59449 1.05661 8.5702C1.20197 8.48101 1.3481 8.39332 1.49439 8.30578C1.55847 8.26735 1.62255 8.22893 1.68857 8.18933C2.07257 7.95936 2.45712 7.73037 2.84194 7.50185C3.28397 7.23919 3.72461 6.97412 4.16477 6.70814C4.74926 6.35511 5.33497 6.00435 5.9216 5.65515C6.79019 5.13803 7.65627 4.61654 8.52171 4.09381C9.38715 3.57108 10.2532 3.04962 11.1218 2.53248C11.7243 2.17372 12.3262 1.81396 12.927 1.45226C13.032 1.38916 13.032 1.38916 13.1392 1.32478C13.439 1.14424 13.7376 0.962651 14.0318 0.772577C16.0336 -0.51866 17.6739 -0.0508782 19.5897 1.14362ZM13.7217 3.487C13.1825 3.82057 12.6388 4.14511 12.0925 4.46599C11.272 4.94832 10.4555 5.43729 9.64093 5.93013C8.63057 6.54137 7.61856 7.14956 6.60406 7.75345C6.02617 8.09765 5.44982 8.44451 4.87396 8.79231C4.05391 9.28721 3.23095 9.77689 2.40794 10.2665C2.60586 10.4864 2.79951 10.6374 3.05193 10.7854C3.12405 10.828 3.19617 10.8706 3.27047 10.9144C3.34818 10.9598 3.4259 11.0051 3.50596 11.0517C3.58787 11.0999 3.66975 11.1482 3.75161 11.1965C3.9217 11.2969 4.09192 11.397 4.26222 11.497C4.65536 11.7279 5.04687 11.9618 5.43847 12.1955C5.51408 12.2406 5.58969 12.2856 5.66758 12.332C6.24454 12.676 6.82005 13.0226 7.39509 13.37C7.90558 13.6781 8.41766 13.9833 8.93017 14.2879C9.55536 14.6595 10.1771 15.0367 10.7968 15.418C11.5257 15.8664 12.2597 16.3046 12.997 16.738C13.6878 17.1443 14.3747 17.5572 15.0607 17.9722C15.1207 18.0084 15.1807 18.0446 15.2426 18.0818C15.3468 18.1448 15.4507 18.2082 15.5543 18.2722C15.9792 18.5314 16.3258 18.5966 16.8139 18.5452C17.321 18.3863 17.7699 18.1164 18.2194 17.8326C18.3557 17.748 18.492 17.6635 18.6284 17.579C18.6993 17.5351 18.7701 17.4911 18.8432 17.4458C19.2156 17.2166 19.5916 16.9937 19.9675 16.7706C20.5599 16.4183 21.1516 16.0647 21.7419 15.7085C21.811 15.6668 21.8801 15.6251 21.9513 15.5821C22.1597 15.4563 22.368 15.3305 22.5763 15.2047C22.8545 15.0367 23.1326 14.8688 23.4108 14.7009C23.4802 14.659 23.5496 14.6172 23.6211 14.574C24.134 14.2648 24.6485 13.9584 25.1633 13.6524C25.8674 13.2339 26.5667 12.8075 27.2645 12.3778C27.6818 12.1217 28.1004 11.8686 28.5221 11.6205C28.5665 11.5944 28.6108 11.5683 28.6565 11.5414C28.8695 11.4162 29.0828 11.2915 29.2963 11.1672C29.7391 10.9081 30.1695 10.6392 30.5875 10.3391C30.3589 10.1423 30.1327 9.97877 29.8719 9.83109C29.8017 9.79103 29.7315 9.75097 29.6593 9.70969C29.5844 9.66728 29.5095 9.62487 29.4324 9.58117C28.8538 9.25003 28.2789 8.91426 27.7107 8.56449C27.1524 8.22107 26.5916 7.88264 26.0285 7.54781C25.0873 6.988 24.1493 6.42264 23.2117 5.85634C22.3393 5.3295 21.4656 4.80508 20.59 4.284C20.0651 3.97145 19.5416 3.65646 19.0188 3.34038C18.5357 3.04867 18.052 2.7581 17.565 2.47348C17.5196 2.44681 17.4742 2.42014 17.4274 2.39267C16.111 1.62836 14.838 2.79606 13.7217 3.487ZM7.18652 15.7857C7.17999 16.41 7.175 17.0343 7.17196 17.6587C7.17049 17.9487 7.16851 18.2386 7.16531 18.5286C7.16225 18.8088 7.16058 19.0889 7.15985 19.3691C7.15933 19.4756 7.15833 19.5822 7.1568 19.6887C7.14201 20.5889 7.14201 20.5889 7.57237 21.3503C7.90768 21.6858 8.33637 21.9065 8.74095 22.1391C8.91685 22.2402 9.09207 22.3426 9.26735 22.4449C9.35726 22.4973 9.4472 22.5497 9.53718 22.602C9.95091 22.8428 10.361 23.0898 10.7705 23.3381C11.3529 23.6903 11.9364 24.0404 12.5217 24.3875C12.6457 24.4611 12.7696 24.5349 12.8935 24.6087C13.864 25.1942 13.864 25.1942 14.9078 25.6121C14.9801 25.6343 15.0524 25.6564 15.1268 25.6793C16.8962 26.1423 18.5341 25.5857 20.0553 24.6544C20.1754 24.5818 20.2956 24.5092 20.4157 24.4367C20.5393 24.362 20.6627 24.2871 20.7861 24.2122C21.1707 23.979 21.5574 23.7496 21.9439 23.5197C22.0946 23.4298 22.2453 23.3399 22.396 23.2499C22.6739 23.0842 22.9521 22.9189 23.2306 22.7541C23.3553 22.6803 23.4799 22.6064 23.6045 22.5325C23.7603 22.4401 23.9162 22.3479 24.0723 22.2559C24.9025 21.8071 24.9025 21.8071 25.563 21.1459C25.6119 21.0747 25.6119 21.0747 25.6618 21.0021C25.8207 20.7271 25.8175 20.493 25.8169 20.1798C25.8169 20.1086 25.8169 20.1086 25.8169 20.0359C25.8169 19.8791 25.8163 19.7224 25.8158 19.5656C25.8156 19.4568 25.8155 19.348 25.8155 19.2393C25.8152 18.9531 25.8145 18.6669 25.8137 18.3808C25.813 18.0887 25.8127 17.7966 25.8123 17.5046C25.8116 16.9316 25.8104 16.3586 25.8089 15.7857C25.5425 15.893 25.3003 16.0162 25.0521 16.1635C24.9731 16.2102 24.8942 16.2569 24.8128 16.3051C24.7276 16.3558 24.6424 16.4066 24.5572 16.4574C24.4685 16.51 24.3798 16.5626 24.2911 16.6152C23.6697 16.9841 23.0503 17.3564 22.4317 17.7303C21.8429 18.0863 21.2522 18.439 20.6606 18.7902C20.2781 19.0175 19.8969 19.2469 19.5181 19.4808C18.2728 20.2477 17.1337 20.9087 15.6325 20.5786C14.5485 20.2596 13.5668 19.5567 12.606 18.9695C12.2555 18.7556 11.9039 18.5438 11.5522 18.3319C11.4832 18.2902 11.4141 18.2486 11.343 18.2056C10.7464 17.8461 10.1481 17.4898 9.54935 17.1341C9.17109 16.909 8.79405 16.682 8.41905 16.4511C8.34749 16.4071 8.27594 16.3631 8.20222 16.3177C8.0667 16.2341 7.93134 16.1501 7.79616 16.0659C7.70636 16.0104 7.70636 16.0104 7.61475 15.9539C7.56234 15.9213 7.50994 15.8886 7.45595 15.855C7.33051 15.7745 7.33051 15.7745 7.18652 15.7857Z" fill="#991D20"/>
</svg>
