<svg width="32" height="33" viewBox="0 0 32 33" fill="none" xmlns="http://www.w3.org/2000/svg">
<g clip-path="url(#clip0_1064_2284)">
<path d="M31.0693 14.1178C31.5037 14.4799 31.9573 14.97 32.0201 15.5648C32.0259 15.7934 32.0294 16.0219 32.0312 16.2506C32.0351 16.3684 32.0351 16.3684 32.0391 16.4886C32.0449 17.1925 31.8349 17.699 31.3555 18.2046C31.1581 18.4199 30.97 18.6378 30.7891 18.8679C30.5812 19.1321 30.3702 19.393 30.1562 19.6519C29.9454 19.9072 29.7368 20.164 29.5312 20.4239C29.297 20.7201 29.0581 21.0119 28.8177 21.303C28.6378 21.5213 28.4605 21.7415 28.2852 21.9637C28.0378 22.2765 27.7835 22.5825 27.5277 22.888C27.2909 23.1715 27.06 23.4595 26.8308 23.7495C26.6647 23.9583 26.4969 24.1655 26.3281 24.372C26.3001 24.4064 26.2721 24.4409 26.2433 24.4764C26.0673 24.6909 25.8829 24.8917 25.6875 25.0876C25.6515 25.1245 25.6155 25.1614 25.5784 25.1994C24.5016 26.2309 23.052 26.5995 21.6179 26.5909C21.5277 26.591 21.4375 26.5913 21.3474 26.5916C21.1554 26.5921 20.9634 26.5921 20.7713 26.5916C20.467 26.5908 20.1628 26.5916 19.8585 26.5927C19.1033 26.595 18.3482 26.5954 17.593 26.5952C17.0045 26.5951 16.4161 26.5956 15.8276 26.5978C15.5257 26.5989 15.2239 26.5988 14.922 26.5977C14.7338 26.5974 14.5456 26.5981 14.3573 26.599C14.2707 26.5993 14.1841 26.5991 14.0976 26.5984C13.3714 26.5931 12.7762 26.6893 12.2415 27.2237C12.1244 27.3397 12.0008 27.4357 11.8711 27.5361C11.7633 27.6258 11.7633 27.6258 11.6875 27.725C11.6835 27.9154 11.6835 27.9154 11.75 28.111C11.7884 28.7045 11.6464 29.1697 11.3125 29.6549C11.2113 29.7699 11.107 29.8822 11.0002 29.9919C10.97 30.0231 10.9398 30.0543 10.9087 30.0865C10.8098 30.1885 10.7104 30.2901 10.6111 30.3916C10.5418 30.4628 10.4725 30.5341 10.4033 30.6054C10.2587 30.7541 10.1138 30.9027 9.9688 31.0511C9.78297 31.2412 9.59756 31.4318 9.41229 31.6226C9.26953 31.7695 9.1266 31.9162 8.98362 32.0629C8.91518 32.1332 8.84678 32.2034 8.77842 32.2738C8.683 32.3718 8.58737 32.4697 8.49168 32.5675C8.43734 32.6232 8.383 32.6789 8.327 32.7362C8.06827 32.9866 7.89279 33.0496 7.54541 33.0388C7.08706 32.9341 6.7634 32.4366 6.45532 32.0938C5.87379 31.4486 5.27034 30.8269 4.6639 30.2066C4.47691 30.0154 4.29022 29.8238 4.10357 29.6322C3.57369 29.0884 3.04341 28.545 2.51289 28.0018C2.21795 27.6998 1.92323 27.3976 1.62876 27.0951C1.44334 26.9047 1.25765 26.7146 1.07174 26.5246C0.929709 26.3794 0.78809 26.2337 0.646408 26.0881C0.595148 26.0359 0.543887 25.9837 0.491074 25.93C0.444401 25.8818 0.397731 25.8337 0.349644 25.7841C0.288731 25.7218 0.288729 25.7218 0.226585 25.6581C0.0667674 25.469 0.00635099 25.3184 -0.0351562 25.0715C0.0523098 24.4714 0.781223 23.9578 1.18579 23.548C1.45272 23.2759 1.70849 22.9999 1.95331 22.7067C2.15528 22.4702 2.37048 22.2474 2.58594 22.024C2.65192 21.9541 2.65192 21.9541 2.71924 21.8828C3.1298 21.4571 3.61337 20.9925 4.22192 20.9581C4.29951 20.9596 4.37709 20.9611 4.45703 20.9626C4.53542 20.9638 4.61381 20.9649 4.69458 20.9661C4.75412 20.9676 4.81366 20.9691 4.875 20.9706C4.89184 20.9243 4.90868 20.8779 4.92603 20.8302C5.19353 20.175 5.65329 19.6731 6.125 19.1695C6.1615 19.1278 6.19799 19.0862 6.2356 19.0433C7.4821 17.6597 9.50445 16.9297 11.2981 16.8456C12.516 16.8128 13.8817 16.8571 15 17.4326C15.0976 17.4389 15.1954 17.4412 15.2932 17.4415C15.355 17.4419 15.4169 17.4422 15.4806 17.4426C15.5487 17.4426 15.6168 17.4427 15.687 17.4428C15.7586 17.4431 15.8301 17.4434 15.9038 17.4438C16.0597 17.4445 16.2156 17.445 16.3715 17.4454C16.6185 17.4462 16.8654 17.4475 17.1124 17.4489C17.8148 17.4528 18.5172 17.4563 19.2196 17.4584C19.6073 17.4596 19.9951 17.4615 20.3828 17.4641C20.5878 17.4655 20.7928 17.4664 20.9978 17.4666C21.2272 17.4669 21.4565 17.4684 21.6858 17.4702C21.7529 17.47 21.82 17.4698 21.8891 17.4696C22.4361 17.4757 22.9294 17.5766 23.3984 17.8789C23.4479 17.91 23.4974 17.9411 23.5483 17.9731C23.6942 18.0808 23.8143 18.1992 23.9375 18.3332C24.2099 18.2066 24.3771 18.0077 24.5742 17.7824C25.0798 17.2149 25.609 16.6732 26.1409 16.1321C26.4472 15.8198 26.7476 15.5061 27.028 15.1687C28.0571 13.9366 29.5854 12.997 31.0693 14.1178ZM28.0374 16.0593C27.6196 16.565 27.1523 17.0224 26.6942 17.4888C26.5785 17.6066 26.463 17.7246 26.3477 17.8427C26.3108 17.8805 26.2738 17.9183 26.2358 17.9572C26.0123 18.1875 25.8015 18.4246 25.5973 18.6733C25.4907 18.794 25.377 18.8981 25.2566 19.0041C24.6976 19.4954 24.6976 19.4954 24.472 20.1902C24.4649 20.3378 24.46 20.4853 24.4556 20.6329C24.4373 21.1391 24.1814 21.568 23.8516 21.9315C23.2823 22.4585 22.6615 22.6729 21.9004 22.6702C21.8442 22.6707 21.7879 22.6713 21.7299 22.6718C21.5461 22.6733 21.3623 22.6734 21.1785 22.6733C21.0498 22.6738 20.9211 22.6743 20.7924 22.6748C20.5238 22.6757 20.2552 22.6758 19.9866 22.6754C19.6425 22.675 19.2985 22.677 18.9544 22.6796C18.6891 22.6812 18.4239 22.6814 18.1586 22.6812C18.0317 22.6813 17.9048 22.6819 17.7779 22.6831C17.6008 22.6845 17.4238 22.6839 17.2466 22.6827C17.1944 22.6836 17.1421 22.6844 17.0883 22.6853C16.819 22.6813 16.7182 22.6684 16.5002 22.4894C16.365 22.3081 16.3125 22.2275 16.3125 21.9999C16.4385 21.5973 16.4385 21.5973 16.5989 21.473C16.824 21.3955 17.0464 21.4033 17.2811 21.4045C17.3613 21.4042 17.3613 21.4042 17.4431 21.4038C17.5592 21.4034 17.6753 21.4032 17.7913 21.4033C17.9752 21.4033 18.1592 21.4025 18.3431 21.4014C18.8661 21.3984 19.389 21.3969 19.912 21.3964C20.232 21.3961 20.552 21.3945 20.872 21.3922C20.9937 21.3916 21.1154 21.3915 21.2371 21.3918C21.4078 21.3922 21.5784 21.3911 21.7491 21.3897C21.7989 21.3902 21.8487 21.3907 21.9001 21.3913C22.2863 21.3855 22.6191 21.2829 22.9082 21.0085C23.1874 20.6823 23.2806 20.39 23.2695 19.9633C23.2246 19.617 23.0693 19.3432 22.8164 19.1132C22.5433 18.9182 22.3279 18.8316 21.9954 18.8325C21.933 18.8324 21.8705 18.8322 21.8062 18.832C21.7384 18.8325 21.6705 18.833 21.6007 18.8334C21.4927 18.8334 21.4927 18.8334 21.3825 18.8334C21.2261 18.8334 21.0697 18.8336 20.9133 18.8341C20.6649 18.8348 20.4164 18.8345 20.168 18.8338C19.4616 18.8319 18.7552 18.8311 18.0488 18.833C17.6584 18.8341 17.2681 18.8337 16.8777 18.8319C16.6718 18.831 16.4659 18.831 16.2599 18.8323C15.4112 18.8375 14.6504 18.825 13.8568 18.4921C12.3469 17.8761 10.4018 18.1395 8.9375 18.7835C8.31278 19.0837 7.75994 19.4626 7.25 19.9414C7.20142 19.9862 7.15284 20.031 7.10278 20.0771C6.63739 20.5289 6.23821 21.0653 6 21.6782C7.58812 23.3128 9.17625 24.9474 10.8125 26.6315C10.9569 26.5041 11.1012 26.3767 11.25 26.2455C11.9502 25.6443 12.6549 25.2733 13.5798 25.2721C13.6573 25.2719 13.7349 25.2716 13.8147 25.2714C13.8998 25.2714 13.9849 25.2714 14.0701 25.2715C14.1603 25.2713 14.2506 25.271 14.3409 25.2708C14.535 25.2703 14.7291 25.2699 14.9231 25.2697C15.2309 25.2694 15.5386 25.2683 15.8463 25.2671C15.9519 25.2667 16.0575 25.2663 16.1631 25.2659C16.2425 25.2655 16.2425 25.2655 16.3234 25.2652C17.0393 25.2625 17.7552 25.2604 18.4711 25.2596C18.9547 25.2591 19.4382 25.2576 19.9217 25.2552C20.177 25.2539 20.4324 25.2531 20.6877 25.2534C20.9285 25.2537 21.1692 25.2528 21.41 25.251C21.4975 25.2506 21.5851 25.2506 21.6727 25.251C22.9488 25.2572 24.043 24.8272 24.9688 23.9136C25.1933 23.6751 25.3944 23.4178 25.5967 23.1593C25.7596 22.9526 25.9261 22.7494 26.0938 22.5467C26.3034 22.2928 26.5108 22.0374 26.7148 21.7788C26.9622 21.4659 27.2165 21.16 27.4723 20.8545C27.7095 20.5705 27.9408 20.2821 28.1702 19.9914C28.359 19.7544 28.5519 19.521 28.7448 19.2874C28.9247 19.0691 29.102 18.8489 29.2773 18.6267C29.4967 18.349 29.7219 18.0773 29.9492 17.8065C30.6094 17.0793 30.6094 17.0793 30.8047 16.1461C30.7545 15.7502 30.5987 15.5356 30.3203 15.2616C29.3923 14.5738 28.6403 15.3285 28.0374 16.0593ZM3.62695 22.9125C3.54062 23.0025 3.54062 23.0025 3.45254 23.0942C3.30016 23.253 3.14935 23.4133 2.99882 23.5739C2.8447 23.7379 2.68914 23.9003 2.53369 24.0629C2.22938 24.3816 1.92669 24.7019 1.625 25.0233C1.71536 25.236 1.82787 25.3773 1.98639 25.5415C2.03563 25.5928 2.08487 25.6442 2.13561 25.697C2.21675 25.7806 2.21675 25.7806 2.29953 25.8659C2.35645 25.925 2.41337 25.9841 2.47201 26.045C2.62795 26.207 2.7843 26.3684 2.94077 26.5298C3.03848 26.6306 3.1361 26.7315 3.23369 26.8324C3.57405 27.1843 3.91476 27.5358 4.25577 27.887C4.5739 28.2147 4.89121 28.5432 5.20815 28.8721C5.48021 29.1543 5.75287 29.4359 6.02599 29.7171C6.18916 29.8851 6.35206 30.0533 6.51436 30.2222C6.69515 30.4103 6.87715 30.597 7.0593 30.7837C7.11314 30.84 7.16698 30.8964 7.22245 30.9545C7.27204 31.0049 7.32164 31.0553 7.37274 31.1073C7.41567 31.1516 7.4586 31.1959 7.50283 31.2416C7.61882 31.3425 7.61882 31.3425 7.75798 31.3154C7.91449 31.2454 8.01023 31.1498 8.13188 31.0267C8.18171 30.9766 8.23154 30.9266 8.28288 30.875C8.36268 30.7932 8.36268 30.7932 8.44409 30.7097C8.49908 30.6538 8.55407 30.5978 8.61072 30.5402C8.72691 30.4216 8.84284 30.3027 8.95854 30.1836C9.07703 30.0616 9.19614 29.9404 9.3159 29.8197C9.4885 29.6456 9.65979 29.4703 9.83081 29.2945C9.88439 29.2408 9.93797 29.187 9.99317 29.1316C10.209 28.9068 10.3557 28.7507 10.452 28.4471C10.4285 28.1101 10.2504 27.9023 10.0242 27.6697C9.97893 27.6228 9.93363 27.5759 9.88696 27.5276C9.83757 27.4772 9.78818 27.4267 9.73729 27.3747C9.68504 27.3208 9.63278 27.2669 9.57895 27.2113C9.43611 27.0641 9.29299 26.9172 9.14974 26.7704C8.99978 26.6166 8.85015 26.4625 8.70048 26.3084C8.44929 26.05 8.19786 25.7917 7.94627 25.5337C7.65526 25.2352 7.36458 24.9363 7.07408 24.6373C6.79455 24.3496 6.51485 24.062 6.23504 23.7745C6.11595 23.6522 5.99691 23.5298 5.87791 23.4074C5.71197 23.2367 5.54583 23.0663 5.37962 22.8959C5.33011 22.8449 5.28059 22.7939 5.22957 22.7414C5.18445 22.6952 5.13932 22.649 5.09282 22.6014C5.03391 22.541 5.03391 22.541 4.9738 22.4793C4.80038 22.3153 4.63093 22.2788 4.39549 22.283C4.06998 22.3692 3.85175 22.6703 3.62695 22.9125Z" fill="#991D20"/>
<path d="M18.6598 -0.023919C18.7009 -0.0239054 18.742 -0.0238918 18.7844 -0.0238778C20.6708 -0.0176678 22.3071 0.754092 23.6676 2.07477C24.9843 3.49294 25.6542 5.34817 25.6341 7.30263C25.5466 9.36066 24.6831 11.1273 23.2245 12.5178C22.9417 12.7742 22.6323 12.9842 22.3121 13.1873C22.2591 13.2212 22.2591 13.2212 22.2051 13.2557C20.7063 14.1945 18.8291 14.46 17.125 14.0586C16.4309 13.8846 15.8092 13.6101 15.1871 13.2517C15.1248 13.2159 15.0624 13.1802 14.9982 13.1434C14.5266 12.8534 14.1429 12.484 13.7496 12.0938C13.7084 12.0555 13.6673 12.0172 13.6249 11.9777C12.4254 10.8315 11.8111 8.97878 11.7416 7.3363C11.7064 5.37794 12.3727 3.64597 13.6246 2.18734C13.6808 2.12142 13.6808 2.12142 13.7381 2.05416C15.0045 0.663546 16.8365 -0.0264235 18.6598 -0.023919ZM14.4996 3.21658C13.5682 4.30545 13.0114 5.77309 13.0506 7.23051C13.149 8.66565 13.616 9.93237 14.5621 11.0002C14.605 11.0503 14.6478 11.1004 14.692 11.152C15.6366 12.1962 17.0657 12.8021 18.4366 12.8758C19.9148 12.9172 21.3289 12.4046 22.4371 11.3862C22.4846 11.3426 22.532 11.2991 22.5809 11.2542C23.5965 10.2668 24.2507 8.84037 24.3121 7.39786C24.3146 7.34969 24.3171 7.30151 24.3197 7.25187C24.3571 5.84882 23.876 4.47671 22.9996 3.40956C22.9579 3.35724 22.9161 3.30491 22.8732 3.251C22.0014 2.19994 20.8107 1.58999 19.4996 1.35108C17.5563 1.21998 15.8667 1.73463 14.4996 3.21658Z" fill="#991D20"/>
<path d="M18.8747 2.57318C19.0675 2.71492 19.1636 2.80491 19.2258 3.04156C19.2526 3.23752 19.2558 3.42469 19.2536 3.62252C19.2531 3.69126 19.2525 3.76 19.2519 3.83083C19.2512 3.88282 19.2505 3.93481 19.2497 3.98838C19.3181 3.99771 19.3181 3.99771 19.3879 4.00723C19.5862 4.05896 19.6925 4.13465 19.8513 4.26579C19.8985 4.30402 19.9457 4.34225 19.9944 4.38163C20.2948 4.66128 20.2948 4.66128 20.3349 4.88897C20.3233 5.36036 20.3233 5.36036 20.1872 5.53224C19.9833 5.67382 19.8519 5.72445 19.6052 5.72924C19.3858 5.66418 19.2782 5.59883 19.0974 5.46389C18.8158 5.25683 18.6536 5.23253 18.3122 5.27493C18.2194 5.30677 18.2194 5.30677 18.1247 5.33926C18.0492 5.57258 18.0131 5.805 18.0622 6.04686C18.2011 6.24371 18.2889 6.29813 18.5198 6.35794C18.5982 6.36939 18.6767 6.38083 18.7575 6.39262C19.3091 6.48924 19.7359 6.67834 20.0896 7.13641C20.4067 7.62414 20.5501 8.10128 20.4746 8.68605C20.3313 9.37822 20.0065 9.78248 19.4372 10.1638C19.3754 10.1957 19.3754 10.1957 19.3122 10.2281C19.2846 10.4411 19.2659 10.6521 19.253 10.8664C19.2292 11.1304 19.2048 11.2356 19.0342 11.4474C18.8002 11.6406 18.6752 11.6731 18.3747 11.6434C18.1562 11.5309 18.0321 11.4495 17.9177 11.2252C17.8747 11.0001 17.8747 11.0001 17.8738 10.8149C17.8708 10.6082 17.8632 10.4284 17.8122 10.2281C17.6455 10.0696 17.4567 9.9971 17.2497 9.90651C16.9785 9.7212 16.773 9.49819 16.6247 9.19891C16.5738 8.92708 16.5944 8.73326 16.7419 8.49533C16.9547 8.28274 17.1211 8.26548 17.4096 8.26691C17.649 8.31618 17.7765 8.46377 17.9472 8.63529C18.159 8.84401 18.3389 8.94362 18.6325 8.93758C18.8483 8.86515 18.9358 8.81515 19.0622 8.61996C19.1007 8.43972 19.1163 8.28227 19.0622 8.10534C18.8283 7.85512 18.6245 7.80749 18.2966 7.75958C17.7198 7.65889 17.3143 7.41021 16.9507 6.9374C16.6588 6.48156 16.5803 5.94153 16.6599 5.40761C16.7851 4.85903 17.0597 4.44507 17.5041 4.12081C17.6275 4.05112 17.7371 4.01639 17.8747 3.98838C17.8733 3.93714 17.8718 3.88589 17.8703 3.83309C17.8631 3.39594 17.8612 3.05623 18.0935 2.67771C18.3418 2.51158 18.5879 2.51777 18.8747 2.57318Z" fill="#991D20"/>
<path d="M14.6246 21.2926C14.844 21.4595 14.9233 21.5651 14.9996 21.8353C14.9996 22.0986 14.9509 22.2311 14.8121 22.4504C14.561 22.6228 14.3574 22.6239 14.0621 22.5791C13.8828 22.4637 13.7814 22.3872 13.6871 22.1931C13.6609 21.9963 13.6571 21.8106 13.6871 21.6142C13.9634 21.2454 14.1905 21.1847 14.6246 21.2926Z" fill="#991D20"/>
</g>
<defs>
<clipPath id="clip0_1064_2284">
<rect width="32" height="33" fill="white"/>
</clipPath>
</defs>
</svg>
